PathFileType	4	(X/Y/Z)	/Users/niels/Desktop/University/Third Semester/Perception and Action/Exam/Gymnastics Motion Tracking/Code for Gym Tracking/Analyzed Data/Webcam_Backflip/id7_4_baseline_Sports2D/id7_4_baseline_Sports2D_px_person00.trc
DataRate	CameraRate	NumFrames	NumMarkers	Units	OrigDataRate	OrigDataStartFrame	OrigNumFrames
29.810126582278482	29.810126582278482	12	22	m	29.810126582278482	19	158
Frame#	Time	Hip			RHip			RKnee			RAnkle			RBigToe			RSmallToe			RHeel			LHip			LKnee			LAnkle			LBigToe			LSmallToe			LHeel			Neck			Head			Nose			RShoulder			RElbow			RWrist			LShoulder			LElbow			LWrist		
		X1	Y1	Z1	X2	Y2	Z2	X3	Y3	Z3	X4	Y4	Z4	X5	Y5	Z5	X6	Y6	Z6	X7	Y7	Z7	X8	Y8	Z8	X9	Y9	Z9	X10	Y10	Z10	X11	Y11	Z11	X12	Y12	Z12	X13	Y13	Z13	X14	Y14	Z14	X15	Y15	Z15	X16	Y16	Z16	X17	Y17	Z17	X18	Y18	Z18	X19	Y19	Z19	X20	Y20	Z20	X21	Y21	Z21	X22	Y22	Z22
19	0.6373673036093418	0.9324502345103601	-0.5696324548195958	0.0	0.9318363930819111	-0.5716741569735185	0.0	1.005223511580876	-0.6338653531793553	0.0	0.9628604305005121	-0.7418271770657657	0.0	0.9867037418923288	-0.7701921613552568	0.0	0.9796137427915084	-0.7720942601740688	0.0	0.9491824305462675	-0.7530555222002444	0.0	0.9289843600620219	-0.5689641676235214	0.0	0.997437243908296	-0.6305385323203003	0.0	0.9589472438116448	-0.7360773053791382	0.0	0.9872604162029235	-0.7619390838667779	0.0	0.9789559184118111	-0.7604663400714247	0.0	0.9420645609877891	-0.7463243048575514	0.0	0.8989276898766712	-0.4282384003346372	0.0	0.8677320830484654	-0.3626055702546616	0.0	0.906677345263436	-0.38513751034589666	0.0	0.9094103621046834	-0.4372537811852687	0.0	0.9796009025673488	-0.42865909643429695	0.0	1.0202981084701848	-0.37455982534272225	0.0	0.8915539660519824	-0.4398546429531738	0.0	0.9599077497900209	-0.4327937658884644	0.0	0.9991222456046792	-0.39814478498631234	0.0
20	0.6709129511677282	0.9328909449845704	-0.5423808203235305	0.0	0.9328899881376946	-0.5449841350562497	0.0	1.019389583337635	-0.5747019922263557	0.0	0.980619257825103	-0.6852198152433591	0.0	1.0009853336051466	-0.7150415941037627	0.0	0.99563838737315	-0.7166434321079418	0.0	0.9673687073844071	-0.6960918008116533	0.0	0.9275177594699263	-0.5416105208925678	0.0	1.0105095934997195	-0.572206237786873	0.0	0.9760280547931783	-0.6794816637969321	0.0	1.001313503752858	-0.7064482205500849	0.0	0.9930865771361962	-0.7065943161681316	0.0	0.9603149811626235	-0.6905201666799117	0.0	0.8878423154196683	-0.40425060656527584	0.0	0.8518610976090312	-0.33971652396227003	0.0	0.8929662154906047	-0.3594798302899938	0.0	0.9018841796433844	-0.4110487413699461	0.0	0.9722144397445837	-0.3998875123081209	0.0	1.013718628808281	-0.3456393748154614	0.0	0.877380459825835	-0.417460870690692	0.0	0.9440606111559683	-0.40690321567623816	0.0	0.981217913676103	-0.3805377333943626	0.0
21	0.7044585987261146	0.9354531612504274	-0.5170335214208392	0.0	0.9367954345361185	-0.5200014979561857	0.0	1.0267321735399744	-0.5118085111916968	0.0	0.9998840623731152	-0.6229900089449992	0.0	1.020277607791419	-0.6494560676860752	0.0	1.0170245231148303	-0.6516892304152432	0.0	0.9882513413830275	-0.6341833262296468	0.0	0.9285651314509923	-0.516378207087302	0.0	1.0171755104948916	-0.5112437459847073	0.0	0.9950933362794496	-0.6173550594758895	0.0	1.0193354509683537	-0.6407999925313582	0.0	1.0117767431049172	-0.6425893183487065	0.0	0.9816679528441298	-0.6299939567840637	0.0	0.8776222140907426	-0.38499039615551056	0.0	0.8372148610150836	-0.32262131089501134	0.0	0.880081004822726	-0.33902301872730245	0.0	0.8956921518067755	-0.3894330676431907	0.0	0.96645147372217	-0.3774033124623386	0.0	1.0104215590001884	-0.32603903431989173	0.0	0.8647637163465364	-0.40039871826659507	0.0	0.9297556374206123	-0.3879265299252785	0.0	0.9660870542107901	-0.3691959806314658	0.0
22	0.738004246284501	0.9413906746348549	-0.4935159934596006	0.0	0.9445559538567596	-0.4963754702518799	0.0	1.0249472303095206	-0.4505706142523218	0.0	1.0182959230759505	-0.5583954053973236	0.0	1.0415246570485586	-0.5759010910951541	0.0	1.040598618516833	-0.5795417568895093	0.0	1.009553596443132	-0.570618763555951	0.0	0.9334617243002797	-0.4931804823004611	0.0	1.0150041769904108	-0.45281115486697565	0.0	1.013372476181308	-0.5530169724800246	0.0	1.0384670552900148	-0.5680183718548164	0.0	1.031891935909544	-0.5710172306858535	0.0	1.003653901816403	-0.567865649380038	0.0	0.8687810271056232	-0.3720858254216777	0.0	0.8236686584560938	-0.3139971773740921	0.0	0.8678040328354829	-0.3258207242647725	0.0	0.890945065637075	-0.3738129929407131	0.0	0.9627055448825488	-0.3609798455599857	0.0	1.0085753785074936	-0.31353888377721845	0.0	0.8553115757671022	-0.38959215497755695	0.0	0.9184745108413296	-0.37582604258666785	0.0	0.9539161597362422	-0.35946655594060745	0.0
23	0.7715498938428874	0.9509352647858667	-0.4707336221059275	0.0	0.9559257048121312	-0.47276470182339364	0.0	1.0140197711928354	-0.3960631702244962	0.0	1.0332749108682349	-0.4942232924400861	0.0	1.0597981807593617	-0.498374059028159	0.0	1.0613976030219832	-0.5036543797374714	0.0	1.0284211843414939	-0.5076120753055118	0.0	0.9423939446120796	-0.47084331624826165	0.0	1.003981957152084	-0.40137484775553633	0.0	1.0278537815984612	-0.4893621968691776	0.0	1.054352672940093	-0.49253890335084377	0.0	1.0486360060321793	-0.4959770837153115	0.0	1.023255361593711	-0.5061645116980318	0.0	0.8619813477878384	-0.3662956656414496	0.0	0.8117946619746587	-0.31569337399114483	0.0	0.856244898413288	-0.321265345956786	0.0	0.8876790328375024	-0.36482561902232186	0.0	0.9605973870665668	-0.3497780898790206	0.0	1.0057690939460673	-0.3054032525250559	0.0	0.8504352180768583	-0.3849276472796473	0.0	0.9102057481528049	-0.36933670708478133	0.0	0.9436283541640179	-0.34930354600258806	0.0
24	0.8050955414012739	0.9630947879258542	-0.44738290613534487	0.0	0.9694560805539503	-0.44782521109666107	0.0	0.9958297150802716	-0.35200334752680734	0.0	1.0424929416857986	-0.43288416845926814	0.0	1.070046158994622	-0.4220047690948992	0.0	1.0743130764144995	-0.4284961116138997	0.0	1.0419514299336334	-0.44670817051901107	0.0	0.9542408215633348	-0.44799733173033635	0.0	0.9860262292907855	-0.3599749737020259	0.0	1.035973161134155	-0.4289893745803068	0.0	1.0627778625244073	-0.41945415431851235	0.0	1.0574352978139232	-0.4225206829933369	0.0	1.0374299133221077	-0.4463073339815359	0.0	0.85812336834767	-0.36766801008503097	0.0	0.8031689625659313	-0.3284973880609587	0.0	0.8462004150604511	-0.3261759858208275	0.0	0.886145939243715	-0.36254429861960646	0.0	0.9593035281688145	-0.34271317063573087	0.0	1.0000203030529486	-0.2992942531556047	0.0	0.8509207909645135	-0.3856156916706817	0.0	0.9057041521163436	-0.36621845819774557	0.0	0.9357044814591385	-0.3390270293650226	0.0
25	0.8386411889596603	0.9758947621322537	-0.4227145122496845	0.0	0.9829399640826082	-0.4211398141188641	0.0	0.9731732858143421	-0.32036704216673	0.0	1.0443435603995175	-0.3767452102417497	0.0	1.0688459156190064	-0.35208646788638986	0.0	1.0756606673911708	-0.3589441817856049	0.0	1.0478791706738229	-0.389588375752695	0.0	0.9668489044960805	-0.4238065186687685	0.0	0.9639758424955648	-0.3300204424552743	0.0	1.0362110893346725	-0.3743611445826008	0.0	1.0610530820896544	-0.35342403318816046	0.0	1.0555636341153352	-0.35556112284859076	0.0	1.043744521307356	-0.3898673691011275	0.0	0.8582922534179707	-0.37553134356210927	0.0	0.8002086827140494	-0.3518099380993518	0.0	0.8392624298496199	-0.3405572100231555	0.0	0.88705445857672	-0.36645717768792524	0.0	0.9580286980323252	-0.3386205516421912	0.0	0.9903781298982116	-0.29381343517872105	0.0	0.8566824054538267	-0.39054993480496464	0.0	0.9063833927473782	-0.3641691786819449	0.0	0.9313334792093261	-0.33013959124219155	0.0
26	0.8721868365180467	0.9869573161806502	-0.39693470351482074	0.0	0.9940275527252274	-0.3935259242969811	0.0	0.9489046383884678	-0.30167118904142853	0.0	1.0380175701363554	-0.32828639786626146	0.0	1.0549095715595755	-0.2933534124487385	0.0	1.0637618422394028	-0.29967181589316183	0.0	1.0448129889236664	-0.3384830125455667	0.0	0.9777058014552178	-0.39836906281776585	0.0	0.9407881293066153	-0.31174193683320517	0.0	1.0282302866787671	-0.32781837754751464	0.0	1.0481786637260853	-0.2981798950092866	0.0	1.0423327711007613	-0.2991096791422983	0.0	1.0407415051229418	-0.3389473186411223	0.0	0.8636418813039446	-0.38838460609354114	0.0	0.8055812132844391	-0.38329451238128337	0.0	0.8376240898027298	-0.36320919853200123	0.0	0.8915598989104323	-0.3753079709757303	0.0	0.956330011632255	-0.3364852987266538	0.0	0.9770347497901963	-0.28891889488124384	0.0	0.8670619327214597	-0.39850431923149654	0.0	0.911781927658754	-0.36203860342780253	0.0	0.929341575354838	-0.3252550686808197	0.0
27	0.9057324840764331	0.9942422240187689	-0.37117015057340064	0.0	1.0008354129739643	-0.36666039007599904	0.0	0.9255733195820648	-0.2953648277677598	0.0	1.0232397457258784	-0.2898565897382855	0.0	1.0286463323367618	-0.24962986594738223	0.0	1.0387544025873447	-0.2546806176295519	0.0	1.0320453923822417	-0.295885466781487	0.0	0.9848328876867152	-0.3727829865673362	0.0	0.9191494861997123	-0.3046601948336763	0.0	1.0124642218037714	-0.29133020599760395	0.0	1.0243095202024461	-0.2564780888924602	0.0	1.0184075639778627	-0.25601903823068606	0.0	1.0279928975541142	-0.2959075602123459	0.0	0.8751811559550803	-0.4039251408636729	0.0	0.8213168228438127	-0.4188218219598638	0.0	0.8435879168221376	-0.39145385878492445	0.0	0.9007706074628525	-0.3871099531085611	0.0	0.9542051908005587	-0.33578626856397065	0.0	0.9610172114567394	-0.28615664028030646	0.0	0.8815012900733297	-0.40811019526410486	0.0	0.9197100765712274	-0.36008710536920807	0.0	0.9276852540007964	-0.3270531156296933	0.0
28	0.9392781316348195	0.996661284740402	-0.3471490621831207	0.0	1.002382915383565	-0.34248226805915183	0.0	0.905424838552215	-0.2999865983409349	0.0	1.0001689309705966	-0.26326495871925487	0.0	0.9916979433400874	-0.22362024621707785	0.0	1.0022182979280536	-0.2269071554780163	0.0	1.0095547184321965	-0.26404022177663106	0.0	0.9874510100578752	-0.3488259939608918	0.0	0.9012500747035611	-0.3075437629373589	0.0	0.989614582074685	-0.26619066352793846	0.0	0.9903958716669109	-0.23024707473002723	0.0	0.9852906235529	-0.22825120105844057	0.0	1.0060536020240436	-0.2629025161575112	0.0	0.8932967632554398	-0.4193903939246982	0.0	0.8478851608657452	-0.45307222378183065	0.0	0.8587738338187657	-0.42126413800039725	0.0	0.9150362876323989	-0.3995266884069254	0.0	0.9520630939794895	-0.3366704269893851	0.0	0.9438657873349278	-0.2881160347722526	0.0	0.8998999509110917	-0.4177923598281163	0.0	0.9285986953821193	-0.3595120590840042	0.0	0.9266937569287464	-0.33668340152479165	0.0
29	0.972823779193206	0.9942433093278922	-0.32676139232418705	0.0	0.9986855474938956	-0.3227717967908641	0.0	0.8903595143758214	-0.31320918549168986	0.0	0.969729426608666	-0.2496140021971157	0.0	0.9470077427063711	-0.21673880909156704	0.0	0.9570896940361844	-0.21788405096094912	0.0	0.9783516764921939	-0.24471992729412895	0.0	0.9860087687225567	-0.32847917698513857	0.0	0.8886179899167601	-0.3182769222679124	0.0	0.9607236661314534	-0.2530753538557174	0.0	0.9484649709497516	-0.22081488821239376	0.0	0.9453188677775323	-0.2173573289456429	0.0	0.9764265990939892	-0.24178662501959894	0.0	0.9171890481151487	-0.4321881092402818	0.0	0.8836318390694534	-0.4809551490837104	0.0	0.8832286393317975	-0.44815353982388706	0.0	0.9336292422173408	-0.4104385187282418	0.0	0.9506091317921055	-0.3397533584299136	0.0	0.9276248910812263	-0.297075699758473	0.0	0.9222411304068657	-0.4259098282858601	0.0	0.9384665804575292	-0.361840252875606	0.0	0.9288656632552617	-0.3532925133730426	0.0
30	1.0063694267515924	0.9878020386943727	-0.31169073223805677	0.0	0.9905183493248741	-0.3089583146191566	0.0	0.8815501097051627	-0.3321737283649835	0.0	0.9341060759133345	-0.2494428117499458	0.0	0.8992037220080029	-0.2290710340289618	0.0	0.9079238168078316	-0.2276881921718263	0.0	0.9408535618740579	-0.23923059886272902	0.0	0.9815332277075102	-0.3136267079818545	0.0	0.8820084689932035	-0.33430485737916	0.0	0.9278009663039523	-0.2524948517374586	0.0	0.9024267645665048	-0.22905969308925236	0.0	0.9021291781091069	-0.22463361307283547	0.0	0.9416029329197217	-0.23439633716284736	0.0	0.9448010592257382	-0.44052713148847605	0.0	0.9250650256522039	-0.4992020867993078	0.0	0.9149959778332187	-0.468565249548302	0.0	0.9550004705000809	-0.4183758199110005	0.0	0.9506107287383667	-0.34574446257345487	0.0	0.9149002141108215	-0.31382568297343943	0.0	0.947811459814447	-0.4311308759858929	0.0	0.9502235246243111	-0.36815096279815424	0.0	0.9366803229290518	-0.37436702502754826	0.0
